<svg xmlns="http://www.w3.org/2000/svg" width="30" height="40" viewBox="0 0 30 40">
  <g id="placeholder-filled-point" transform="translate(-12.883)">
    <path id="Path_27" data-name="Path 27" d="M27.882,0a14.882,14.882,0,0,0-15,14.727,14.143,14.143,0,0,0,1.312,6.011C17.945,28.794,25.135,37.3,27.25,39.715a.845.845,0,0,0,1.265,0c2.114-2.414,9.3-10.92,13.056-18.978a14.137,14.137,0,0,0,1.312-6.011A14.883,14.883,0,0,0,27.882,0Zm0,22.376a7.73,7.73,0,0,1-7.792-7.649,7.793,7.793,0,0,1,15.583,0A7.73,7.73,0,0,1,27.882,22.376Z" transform="translate(0)" fill="#6fc28a"/>
  </g>
</svg>
