<svg xmlns="http://www.w3.org/2000/svg" width="30" height="30" viewBox="0 0 30 30">
  <g id="icon-eng" transform="translate(-1592 -72)">
    <g id="Group_107" data-name="Group 107">
      <path id="Path_30" data-name="Path 30" d="M3886-257.48v27.735" transform="translate(-2279 331)" fill="none" stroke="#fff" stroke-width="3"/>
      <path id="Path_31" data-name="Path 31" d="M3871.841-244h28.149" transform="translate(-2279 331)" fill="none" stroke="#fff" stroke-width="3"/>
      <g id="Ellipse_1" data-name="Ellipse 1" transform="translate(1592 72)" fill="none" stroke="#fff" stroke-width="2">
        <circle cx="15" cy="15" r="15" stroke="none"/>
        <circle cx="15" cy="15" r="14" fill="none"/>
      </g>
      <path id="Path_32" data-name="Path 32" d="M3882.659-257.024v8.087l-5.733-4.79Z" transform="translate(-2280 331)" fill="#6fc28a" stroke="#fff" stroke-width="1"/>
      <path id="Path_34" data-name="Path 34" d="M3876.926-257.024v8.087l5.733-4.79Z" transform="translate(-2266 331)" fill="#6fc28a" stroke="#fff" stroke-width="1"/>
      <path id="Path_36" data-name="Path 36" d="M3876.926-248.937v-8.087l5.733,4.79Z" transform="translate(-2266 349)" fill="#6fc28a" stroke="#fff" stroke-width="1"/>
      <path id="Path_38" data-name="Path 38" d="M3882.659-248.937v-8.087l-5.733,4.79Z" transform="translate(-2280 349)" fill="#6fc28a" stroke="#fff" stroke-width="1"/>
      <path id="Path_33" data-name="Path 33" d="M3872.953-247.177h5.013L3873.6-250.3Z" transform="translate(-2278 330)" fill="#6fc28a" stroke="#fff" stroke-width="1"/>
      <path id="Path_35" data-name="Path 35" d="M3877.966-247.177h-5.013l4.361-3.122Z" transform="translate(-2259 330)" fill="#6fc28a" stroke="#fff" stroke-width="1"/>
      <path id="Path_37" data-name="Path 37" d="M3877.966-250.3h-5.013l4.361,3.122Z" transform="translate(-2259 341)" fill="#6fc28a" stroke="#fff" stroke-width="1"/>
      <path id="Path_39" data-name="Path 39" d="M3872.953-250.3h5.013l-4.361,3.122Z" transform="translate(-2278 341)" fill="#6fc28a" stroke="#fff" stroke-width="1"/>
    </g>
  </g>
</svg>
